<?xml version="1.0" encoding="UTF-8" standalone="no"?>
<!-- Created with Inkscape (http://www.inkscape.org/) -->

<svg
   xmlns:dc="http://purl.org/dc/elements/1.1/"
   xmlns:cc="http://creativecommons.org/ns#"
   xmlns:rdf="http://www.w3.org/1999/02/22-rdf-syntax-ns#"
   xmlns:svg="http://www.w3.org/2000/svg"
   xmlns="http://www.w3.org/2000/svg"
   xmlns:sodipodi="http://sodipodi.sourceforge.net/DTD/sodipodi-0.dtd"
   xmlns:inkscape="http://www.inkscape.org/namespaces/inkscape"
   width="444"
   height="108.96875"
   id="svg4106"
   version="1.1"
   inkscape:version="0.48.2 r9819"
   sodipodi:docname="urlab4.svg">
  <defs
     id="defs4108">
    <clipPath
       id="clipPath2420"
       clipPathUnits="userSpaceOnUse">
      <path
         id="path2422"
         d="M 0,2816.15 0,0 l 2816.15,0 0,2816.15"
         inkscape:connector-curvature="0" />
    </clipPath>
  </defs>
  <sodipodi:namedview
     id="base"
     pagecolor="#ffffff"
     bordercolor="#666666"
     borderopacity="1.0"
     inkscape:pageopacity="0.0"
     inkscape:pageshadow="2"
     inkscape:zoom="0.98994949"
     inkscape:cx="222"
     inkscape:cy="138.18688"
     inkscape:document-units="px"
     inkscape:current-layer="layer1"
     showgrid="true"
     fit-margin-top="0"
     fit-margin-left="0"
     fit-margin-right="0"
     fit-margin-bottom="0"
     inkscape:window-width="1024"
     inkscape:window-height="576"
     inkscape:window-x="0"
     inkscape:window-y="24"
     inkscape:window-maximized="1">
    <inkscape:grid
       type="xygrid"
       id="grid4641"
       empspacing="1"
       visible="true"
       enabled="true"
       snapvisiblegridlinesonly="true" />
  </sodipodi:namedview>
  <metadata
     id="metadata4111">
    <rdf:RDF>
      <cc:Work
         rdf:about="">
        <dc:format>image/svg+xml</dc:format>
        <dc:type
           rdf:resource="http://purl.org/dc/dcmitype/StillImage" />
        <dc:title />
      </cc:Work>
    </rdf:RDF>
  </metadata>
  <g
     inkscape:groupmode="layer"
     id="layer6"
     inkscape:label="fond">
    <g
       style="display:inline"
       transform="matrix(1.6207537,0,0,-0.42611366,-4,112.96875)"
       inkscape:label="ulbquadri"
       id="g2412">
      <g
         transform="scale(0.1,0.1)"
         id="g2414">
        <g
           id="g2416">
          <g
             clip-path="url(#clipPath2420)"
             id="g2418">
            <path
               id="path2424"
               style="fill:#1d4e9e;fill-opacity:1;fill-rule:nonzero;stroke:none"
               d="m 0,0 2816.15,0 0,2816.15 L 0,2816.15 0,0 z"
               inkscape:connector-curvature="0" />
          </g>
        </g>
      </g>
    </g>
  </g>
  <g
     inkscape:label="Calque 1"
     inkscape:groupmode="layer"
     id="layer1"
     transform="translate(-135.15625,-403.59375)">
    <path
       style="fill:#a7b9e4;fill-opacity:1;stroke:none;stroke-width:5;stroke-linecap:butt;stroke-linejoin:miter;stroke-miterlimit:4;stroke-opacity:1;stroke-dasharray:none"
       d="m 410.15625,467.5625 60,0 0.52109,12.22086 -45.41379,0 0,15.13793 45.41379,0 -0.52109,12.64121 -60,0 z"
       id="path3060"
       inkscape:connector-curvature="0"
       sodipodi:nodetypes="ccccccccc" />
    <path
       style="fill:#a7b9e4;fill-opacity:1;stroke:none;stroke-width:1px;stroke-linecap:butt;stroke-linejoin:miter;stroke-opacity:1"
       d="m 516.09114,404.09371 -317.89656,0 0,75.68965 15.13793,0 0,-60.55172 287.62069,0 0,75.68965 15.13794,0 0,-45.41379 30.27586,0 0,-15.13793 -30.27586,0 0,-30.27586"
       id="path3062"
       inkscape:connector-curvature="0"
       sodipodi:nodetypes="ccccccccccccc" />
    <path
       style="fill:none;stroke:#ffffff;stroke-width:5;stroke-linecap:butt;stroke-linejoin:miter;stroke-miterlimit:4;stroke-opacity:1;stroke-dasharray:none"
       d="m 137.64286,434.36957 15.13793,0 0,60.55172 45.41379,0 0,-15.13793 0,0 15.13793,0 0,30.27586 -75.68965,0 z"
       id="path2992"
       inkscape:connector-curvature="0"
       sodipodi:nodetypes="cccccccccc" />
    <path
       style="fill:none;stroke:#ffffff;stroke-width:5;stroke-linecap:butt;stroke-linejoin:miter;stroke-miterlimit:4;stroke-opacity:1;stroke-dasharray:none"
       d="m 228.47045,510.05922 15.13793,0 0,-60.55172 45.41379,0 0,15.13793 0,0 15.13793,0 0,-30.27586 -75.68965,0 z"
       id="path2992-8"
       inkscape:connector-curvature="0"
       sodipodi:nodetypes="cccccccccc" />
    <path
       style="fill:#ffffff;fill-opacity:1;stroke:none;stroke-width:5;stroke-linecap:butt;stroke-linejoin:miter;stroke-miterlimit:4;stroke-opacity:1;stroke-dasharray:none"
       d="m 394.98769,510.05922 0,-15.13793 -60.55173,0 0,-45.41379 15.13793,0 0,0 0,-15.13793 -30.27586,0 0,75.68965 z"
       id="path2992-5"
       inkscape:connector-curvature="0"
       sodipodi:nodetypes="cccccccccc" />
    <path
       style="fill:none;stroke:#ffffff;stroke-width:5;stroke-linecap:butt;stroke-linejoin:miter;stroke-miterlimit:4;stroke-opacity:1;stroke-dasharray:none"
       d="m 485.81527,510.05922 -15.13793,0 0,-60.55172 -45.41379,0 0,15.13793 0,0 -15.13793,0 0,-30.27586 75.68965,0 z"
       id="path2992-7"
       inkscape:connector-curvature="0"
       sodipodi:nodetypes="cccccccccc" />
    <path
       style="fill:none;stroke:#ffffff;stroke-width:5;stroke-linecap:butt;stroke-linejoin:miter;stroke-miterlimit:4;stroke-opacity:1;stroke-dasharray:none"
       d="m 500.9532,510.05922 0,-15.13793 60.55173,0 0,-45.41379 -15.13793,0 0,0 0,-15.13793 30.27586,0 0,75.68965 z"
       id="path2992-6"
       inkscape:connector-curvature="0"
       sodipodi:nodetypes="cccccccccc" />
    <path
       id="path2426"
       style="fill:#a7b9e4;fill-opacity:1;fill-rule:nonzero;stroke:none;display:inline"
       d="m 369.76875,492.5625 25.3875,0 0,-25.3875 -25.3875,25.3875"
       inkscape:connector-curvature="0" />
  </g>
</svg>
