<?xml version="1.0" encoding="UTF-8" standalone="no"?>
<!-- Created with Inkscape (http://www.inkscape.org/) -->

<svg
   xmlns:dc="http://purl.org/dc/elements/1.1/"
   xmlns:cc="http://creativecommons.org/ns#"
   xmlns:rdf="http://www.w3.org/1999/02/22-rdf-syntax-ns#"
   xmlns:svg="http://www.w3.org/2000/svg"
   xmlns="http://www.w3.org/2000/svg"
   xmlns:sodipodi="http://sodipodi.sourceforge.net/DTD/sodipodi-0.dtd"
   xmlns:inkscape="http://www.inkscape.org/namespaces/inkscape"
   width="456.42856"
   height="120"
   id="svg4696"
   version="1.1"
   inkscape:version="0.48.2 r9819"
   sodipodi:docname="urlab4b.svg">
  <defs
     id="defs4698">
    <clipPath
       id="clipPath2420"
       clipPathUnits="userSpaceOnUse">
      <path
         id="path2422"
         d="M 0,2816.15 0,0 l 2816.15,0 0,2816.15"
         inkscape:connector-curvature="0" />
    </clipPath>
  </defs>
  <sodipodi:namedview
     id="base"
     pagecolor="#ffffff"
     bordercolor="#666666"
     borderopacity="1.0"
     inkscape:pageopacity="0.0"
     inkscape:pageshadow="2"
     inkscape:zoom="0.7"
     inkscape:cx="217.32524"
     inkscape:cy="93.099749"
     inkscape:document-units="px"
     inkscape:current-layer="layer1"
     showgrid="false"
     fit-margin-top="0"
     fit-margin-left="0"
     fit-margin-right="0"
     fit-margin-bottom="0"
     inkscape:window-width="1024"
     inkscape:window-height="576"
     inkscape:window-x="0"
     inkscape:window-y="24"
     inkscape:window-maximized="1" />
  <metadata
     id="metadata4701">
    <rdf:RDF>
      <cc:Work
         rdf:about="">
        <dc:format>image/svg+xml</dc:format>
        <dc:type
           rdf:resource="http://purl.org/dc/dcmitype/StillImage" />
        <dc:title />
      </cc:Work>
    </rdf:RDF>
  </metadata>
  <g
     inkscape:groupmode="layer"
     id="layer7"
     inkscape:label="fond"
     transform="translate(4.6428479,6.4553584)">
    <g
       style="display:inline"
       transform="matrix(1.6207537,0,0,-0.42611366,-4.6428479,113.54464)"
       inkscape:label="ulbquadri"
       id="g2412">
      <g
         transform="scale(0.1,0.1)"
         id="g2414">
        <g
           id="g2416">
          <g
             clip-path="url(#clipPath2420)"
             id="g2418">
            <path
               id="path2424"
               style="fill:#1d4e9e;fill-opacity:1;fill-rule:nonzero;stroke:none"
               d="m 0,0 2816.15,0 0,2816.15 L 0,2816.15 0,0 z"
               inkscape:connector-curvature="0" />
          </g>
        </g>
      </g>
    </g>
    <path
       id="path2426"
       style="fill:#a7b9e4;fill-opacity:1;fill-rule:nonzero;stroke:none;display:inline"
       d="m 225.39822,71.687496 25.3875,0 0,-25.3875 -25.3875,25.3875"
       inkscape:connector-curvature="0" />
  </g>
  <g
     inkscape:label="Calque 1"
     inkscape:groupmode="layer"
     id="layer1"
     transform="translate(-141.41965,-410.20089)">
    <path
       style="fill:none;stroke:#ffffff;stroke-width:5;stroke-linecap:butt;stroke-linejoin:miter;stroke-miterlimit:4;stroke-opacity:1;stroke-dasharray:none"
       d="m 236.57143,519.83837 29.33333,0 0,-58.66667 29.33333,0 0,14.66667 0,0 14.66667,0 0,-29.33333 -73.33333,0 z"
       id="path2992-8-2"
       inkscape:connector-curvature="0"
       sodipodi:nodetypes="cccccccccc" />
    <path
       style="fill:#000000;fill-opacity:1;stroke:#000000;stroke-width:1px;stroke-linecap:butt;stroke-linejoin:miter;stroke-opacity:1"
       d="m 397.90476,519.83837 0,-29.33333 -58.66667,0 0,-29.33334 14.66667,0 0,0 0,-14.66666 -29.33333,0 0,73.33333 z"
       id="path2992-5-1"
       inkscape:connector-curvature="0"
       sodipodi:nodetypes="cccccccccc" />
    <path
       style="fill:none;stroke:#ffffff;stroke-width:5;stroke-linecap:butt;stroke-linejoin:miter;stroke-miterlimit:4;stroke-opacity:1;stroke-dasharray:none"
       d="m 485.90476,519.83837 -29.33333,0 0,-58.66667 -29.33334,0 0,14.66667 0,0 -14.66666,0 0,-29.33333 73.33333,0 z"
       id="path2992-7-1"
       inkscape:connector-curvature="0"
       sodipodi:nodetypes="cccccccccc" />
    <path
       style="fill:#000000;fill-opacity:1;stroke:#000000;stroke-width:1px;stroke-linecap:butt;stroke-linejoin:miter;stroke-opacity:1"
       d="m 515.23809,417.17171 -307.99999,0 0,73.33333 14.66667,0 0,-58.66667 278.66666,0 0,73.33333 14.66666,0 0,-44 29.33333,0 0,-14.66666 -29.33333,0 0,-29.33333"
       id="path3062-2"
       inkscape:connector-curvature="0"
       sodipodi:nodetypes="ccccccccccccc" />
    <path
       style="fill:none;stroke:#ffffff;stroke-width:5;stroke-linecap:butt;stroke-linejoin:miter;stroke-miterlimit:4;stroke-opacity:1;stroke-dasharray:none"
       d="m 148.57143,446.50504 29.33334,0 0,58.66666 29.33333,0 0,-14.66666 0,0 14.66667,0 0,29.33333 -73.33334,0 z"
       id="path2992-2"
       inkscape:connector-curvature="0"
       sodipodi:nodetypes="cccccccccc" />
    <path
       style="fill:none;stroke:#ffffff;stroke-width:5;stroke-linecap:butt;stroke-linejoin:miter;stroke-miterlimit:4;stroke-opacity:1;stroke-dasharray:none"
       d="m 500.57143,519.83837 0,-14.66667 58.66666,0 0,-44 -14.66667,0 0,0 0,-14.66666 44,0 0,73.33333 z"
       id="path2992-6-3"
       inkscape:connector-curvature="0"
       sodipodi:nodetypes="cccccccccc" />
    <path
       style="fill:none;stroke:#ffffff;stroke-width:4;stroke-linecap:butt;stroke-linejoin:miter;stroke-miterlimit:4;stroke-opacity:1;stroke-dasharray:none"
       d="m 412.57143,475.83837 44,0 0,14.66667 -29.33334,0 0,14.66666 29.33334,0 0,14.66667 -44,0 z"
       id="path3060-1"
       inkscape:connector-curvature="0"
       sodipodi:nodetypes="ccccccccc" />
  </g>
</svg>
