<?xml version="1.0" encoding="UTF-8" standalone="no"?>
<!-- Created with Inkscape (http://www.inkscape.org/) -->

<svg
   xmlns:dc="http://purl.org/dc/elements/1.1/"
   xmlns:cc="http://creativecommons.org/ns#"
   xmlns:rdf="http://www.w3.org/1999/02/22-rdf-syntax-ns#"
   xmlns:svg="http://www.w3.org/2000/svg"
   xmlns="http://www.w3.org/2000/svg"
   xmlns:sodipodi="http://sodipodi.sourceforge.net/DTD/sodipodi-0.dtd"
   xmlns:inkscape="http://www.inkscape.org/namespaces/inkscape"
   width="458.42856"
   height="122"
   id="svg4018"
   version="1.1"
   inkscape:version="0.48.2 r9819"
   sodipodi:docname="urlab3.svg">
  <defs
     id="defs4020">
    <clipPath
       id="clipPath2420"
       clipPathUnits="userSpaceOnUse">
      <path
         id="path2422"
         d="M 0,2816.15 0,0 l 2816.15,0 0,2816.15"
         inkscape:connector-curvature="0" />
    </clipPath>
  </defs>
  <sodipodi:namedview
     id="base"
     pagecolor="#ffffff"
     bordercolor="#666666"
     borderopacity="1.0"
     inkscape:pageopacity="0.0"
     inkscape:pageshadow="2"
     inkscape:zoom="0.98994949"
     inkscape:cx="216.69502"
     inkscape:cy="88.930632"
     inkscape:document-units="px"
     inkscape:current-layer="layer1"
     showgrid="false"
     fit-margin-left="1"
     fit-margin-top="1"
     fit-margin-bottom="1"
     fit-margin-right="1"
     inkscape:window-width="1024"
     inkscape:window-height="576"
     inkscape:window-x="0"
     inkscape:window-y="24"
     inkscape:window-maximized="1" />
  <metadata
     id="metadata4023">
    <rdf:RDF>
      <cc:Work
         rdf:about="">
        <dc:format>image/svg+xml</dc:format>
        <dc:type
           rdf:resource="http://purl.org/dc/dcmitype/StillImage" />
        <dc:title />
      </cc:Work>
    </rdf:RDF>
  </metadata>
  <g
     inkscape:groupmode="layer"
     id="layer5"
     inkscape:label="fond"
     transform="translate(4.21428,4.6247484)">
    <g
       style="display:inline"
       transform="matrix(1.6207537,0,0,-0.42611366,-3.21428,116.37525)"
       inkscape:label="ulbquadri"
       id="g2412">
      <g
         transform="scale(0.1,0.1)"
         id="g2414">
        <g
           id="g2416">
          <g
             clip-path="url(#clipPath2420)"
             id="g2418">
            <path
               id="path2424"
               style="fill:#1d4e9e;fill-opacity:1;fill-rule:nonzero;stroke:none"
               d="m 0,0 2816.15,0 0,2816.15 L 0,2816.15 0,0 z"
               inkscape:connector-curvature="0" />
          </g>
        </g>
      </g>
    </g>
  </g>
  <g
     inkscape:label="Calque 1"
     inkscape:groupmode="layer"
     id="layer1"
     transform="translate(-131.81697,-379.37525)">
    <path
       id="path2430-3"
       style="fill:#ffffff;fill-opacity:1;fill-rule:nonzero;stroke:#000000;stroke-width:9;stroke-miterlimit:4;stroke-opacity:1;stroke-dasharray:none"
       d="m 210.60824,485.31335 c 8.9355,-7.2175 10.87638,-15.2 10.87013,-27.2675 l -0.0117,-53.52375 12.5715,-0.0125 0,-14.99375 -36.93963,0.0113 0,14.995 7.88575,-0.0125 0,56.0675 c 0,7.86375 -6.40387,14.2175 -14.26612,14.22375 -10.27588,0.01 -14.23488,-6.3725 -14.23488,-14.23625 l 0,-56.06625 8.80863,0.0113 0.12587,-14.99375 -43.85887,0 0.0576,14.99375 11.02538,0 0.0474,52.29625 c 0,10.82875 0.20025,17.06625 5.93025,24.9975 5.14637,7.12375 14.103,10.59975 28.40812,10.56512 10.07575,-0.0264 17.93113,-2.49262 23.58063,-7.05512"
       inkscape:connector-curvature="0" />
    <path
       id="path2428-0"
       style="fill:#ffffff;fill-opacity:1;fill-rule:nonzero;stroke:#000000;stroke-width:9;stroke-miterlimit:4;stroke-opacity:1;stroke-dasharray:none"
       d="m 316.48704,389.5034 0,14.995 11.99625,0 0,69.91375 -11.99625,0 0,14.9925 72.3525,0 0,-15.555 -36.55125,0 0,-69.35125 13.3075,0 0,-14.995 -49.10875,0"
       inkscape:connector-curvature="0" />
    <path
       id="path2426-4"
       style="fill:none;stroke:#000000;stroke-width:9;stroke-miterlimit:4;stroke-opacity:1;stroke-dasharray:none"
       d="m 363.09579,470.4984 25.3875,0 0,-25.3875 -25.3875,25.3875"
       inkscape:connector-curvature="0" />
    <path
       id="path2432-6"
       style="fill:#ffffff;fill-opacity:1;fill-rule:nonzero;stroke:#000000;stroke-width:9;stroke-miterlimit:4;stroke-opacity:1;stroke-dasharray:none"
       d="m 566.86829,439.2207 c 6.855,4.6125 11.52625,12.7725 11.5725,22.34625 0.0775,15.00875 -15.07875,27.84625 -29.0575,27.82875 l -56.30875,0.004 -0.0125,-15.555 11.43625,0 0,-69.35125 -11.9975,-5e-5 0,-14.995 56.9825,0 c 13.98875,0 25.34375,10.92375 25.34375,24.56625 0,6.1825 -2.9075,13.405 -7.995,17.99375 -3.265,3.02625 -6.73625,4.19125 -6.73625,4.19125 0,0 3.05625,0.55375 6.7725,2.97125 z m -29.72125,-9.2475 c 8.13,0.0225 12.675,-4.805 12.6975,-12.535 0.0225,-7.96625 -5.13,-12.93375 -12.7225,-12.9575 l -8.25625,0.0125 0,25.49125 8.28125,-0.0112 z m 1.2425,43.8825 c 10.1775,-0.0488 14.8025,-5.07375 14.82875,-13.96375 0.0275,-9.16 -6.1375,-15.46 -14.8675,-15.48875 l -9.5,0.0125 0.015,29.44 9.52375,0"
       inkscape:connector-curvature="0" />
    <path
       id="path2430-3-5"
       style="fill:#ffffff;fill-opacity:1;fill-rule:nonzero;stroke:none"
       d="m 210.60824,485.31335 c 8.9355,-7.2175 10.87638,-15.2 10.87013,-27.2675 l -0.0117,-53.52375 12.5715,-0.0125 0,-14.99375 -36.93963,0.0113 0,14.995 7.88575,-0.0125 0,56.0675 c 0,7.86375 -6.40387,14.2175 -14.26612,14.22375 -10.27588,0.01 -14.23488,-6.3725 -14.23488,-14.23625 l 0,-56.06625 8.80863,0.0113 0.12587,-14.99375 -43.85887,0 0.0576,14.99375 11.02538,0 0.0474,52.29625 c 0,10.82875 0.20025,17.06625 5.93025,24.9975 5.14637,7.12375 14.103,10.59974 28.40812,10.56511 10.07575,-0.0264 17.93113,-2.49262 23.58063,-7.05511"
       inkscape:connector-curvature="0" />
    <path
       id="path2428-0-7"
       style="fill:#ffffff;fill-opacity:1;fill-rule:nonzero;stroke:none"
       d="m 316.48704,389.5034 0,14.995 11.99625,0 0,69.91375 -11.99625,0 0,14.99249 72.3525,0 0,-15.55499 -36.55125,0 0,-69.35125 13.3075,0 0,-14.995 -49.10875,0"
       inkscape:connector-curvature="0" />
    <path
       id="path2426-4-6"
       style="fill:#a7b9e4;fill-opacity:1;stroke:none"
       d="m 363.09579,470.4984 25.3875,0 0,-25.3875 -25.3875,25.3875"
       inkscape:connector-curvature="0" />
    <path
       id="path2432-6-6"
       style="fill:#ffffff;fill-opacity:1;fill-rule:nonzero;stroke:none"
       d="m 566.86829,439.2207 c 6.855,4.6125 11.52625,12.7725 11.5725,22.34625 0.0775,15.00875 -15.07875,27.84624 -29.0575,27.82874 l -56.30875,0.004 -0.0125,-15.55499 11.43625,0 0,-69.35125 -11.9975,-5e-5 0,-14.995 56.9825,0 c 13.98875,0 25.34375,10.92375 25.34375,24.56625 0,6.1825 -2.9075,13.405 -7.995,17.99375 -3.265,3.02625 -6.73625,4.19125 -6.73625,4.19125 0,0 3.05625,0.55375 6.7725,2.97125 z m -29.72125,-9.2475 c 8.13,0.0225 12.675,-4.805 12.6975,-12.535 0.0225,-7.96625 -5.13,-12.93375 -12.7225,-12.9575 l -8.25625,0.0125 0,25.49125 8.28125,-0.0112 z m 1.2425,43.8825 c 10.1775,-0.0488 14.8025,-5.07375 14.82875,-13.96375 0.0275,-9.16 -6.1375,-15.46 -14.8675,-15.48875 l -9.5,0.0125 0.015,29.44 9.52375,0"
       inkscape:connector-curvature="0" />
    <path
       style="fill:#ffffff;fill-opacity:1;stroke:#000000;stroke-width:8;stroke-linecap:butt;stroke-linejoin:miter;stroke-miterlimit:4;stroke-opacity:1;stroke-dasharray:none"
       d="m 270.48329,485.4984 -20,0 0,-60 50,0 0,20 -30,0 z"
       id="path4208"
       inkscape:connector-curvature="0"
       sodipodi:nodetypes="ccccccc" />
    <path
       style="fill:#ffffff;fill-opacity:1;stroke:#000000;stroke-width:8;stroke-linecap:butt;stroke-linejoin:miter;stroke-miterlimit:4;stroke-opacity:1;stroke-dasharray:none"
       d="m 417.48329,424.4984 50,0 0,60 -50,0 0,-40 30,0 0,15 -15,0 0,5 15,0 0,-25 -30,0 z"
       id="path4210"
       inkscape:connector-curvature="0"
       sodipodi:nodetypes="ccccccccccccc" />
    <path
       style="fill:#a7b9e4;fill-opacity:1;stroke:none"
       d="m 270.48329,485.4984 -20,0 0,-60 50,0 0,20 -30,0 z"
       id="path4208-0"
       inkscape:connector-curvature="0"
       sodipodi:nodetypes="ccccccc" />
    <path
       style="fill:#a7b9e4;fill-opacity:1;stroke:none"
       d="m 417.48329,424.4984 50,0 0,60 -50,0 0,-40 30,0 0,15 -15,0 0,5 15,0 0,-25 -30,0 z"
       id="path4210-1"
       inkscape:connector-curvature="0"
       sodipodi:nodetypes="ccccccccccccc" />
  </g>
</svg>
